<?xml version="1.0" encoding="UTF-8" standalone="no"?>
<svg
   xmlns:dc="http://purl.org/dc/elements/1.1/"
   xmlns:cc="http://creativecommons.org/ns#"
   xmlns:rdf="http://www.w3.org/1999/02/22-rdf-syntax-ns#"
   xmlns:svg="http://www.w3.org/2000/svg"
   xmlns="http://www.w3.org/2000/svg"
   xmlns:sodipodi="http://sodipodi.sourceforge.net/DTD/sodipodi-0.dtd"
   xmlns:inkscape="http://www.inkscape.org/namespaces/inkscape"
   id="Layer_1"
   data-name="Layer 1"
   viewBox="0 0 655.72 386.73"
   version="1.1"
   sodipodi:docname="wsl_setup3.svg"
   inkscape:version="1.0.2 (e86c870879, 2021-01-15)">
  <sodipodi:namedview
     pagecolor="#ffffff"
     bordercolor="#666666"
     borderopacity="1"
     objecttolerance="10"
     gridtolerance="10"
     guidetolerance="10"
     inkscape:pageopacity="0"
     inkscape:pageshadow="2"
     inkscape:window-width="2560"
     inkscape:window-height="1017"
     id="namedview127"
     showgrid="false"
     inkscape:zoom="1.589093"
     inkscape:cx="178.08901"
     inkscape:cy="193.36501"
     inkscape:window-x="-8"
     inkscape:window-y="-8"
     inkscape:window-maximized="1"
     inkscape:current-layer="text326" />
  <metadata
     id="metadata318">
    <rdf:RDF>
      <cc:Work
         rdf:about="">
        <dc:format>image/svg+xml</dc:format>
        <dc:type
           rdf:resource="http://purl.org/dc/dcmitype/StillImage" />
        <dc:title>wsl_setup</dc:title>
      </cc:Work>
    </rdf:RDF>
  </metadata>
  <defs
     id="defs167">
    <style
       id="style165">.cls-1{isolation:isolate;}.cls-2,.cls-5{fill:none;stroke:#65c8d0;stroke-miterlimit:10;}.cls-2{stroke-width:8px;}.cls-3{fill:#65c8d0;}.cls-4{fill:#00687f;}.cls-5{stroke-width:7px;}</style>
  </defs>
  <title
     id="title169">wsl_setup</title>
  <g
     class="cls-1"
     id="g211">
    <g
       class="cls-1"
       id="g173">
      <path
         d="M95.2,70C95.2,97,76,119,49,119H12.18V21H49C76,21,95.2,43,95.2,70Zm-7.28,0C87.92,46.76,72.1,28,49,28H19.6v84H49C72.1,112,87.92,93.24,87.92,70Z"
         transform="translate(-6.3 -16)"
         id="path171" />
    </g>
    <g
       class="cls-1"
       id="g177">
      <path
         d="M141.12,48v6.72c-12,0-23.38,7.42-23.38,25.34V119h-7V49h7V62.72C122.5,51.66,131.6,48,141.12,48Z"
         transform="translate(-6.3 -16)"
         id="path175" />
    </g>
    <g
       class="cls-1"
       id="g185">
      <path
         d="M215.32,84.28c0,1.12-.14,2.24-.14,3.36H151.76c1.68,15.82,13.72,26.18,29.68,26.18,11.48,0,20.16-5.32,24.22-12.74l6.16,3.64c-5.74,9.52-16.66,15.82-30.52,15.82-21.56,0-36.82-15.4-36.82-36.54,0-20.58,14.84-36.54,36.26-36.54S215.32,65.1,215.32,84.28Zm-63.56-3.5H208c-1.54-17.08-13.58-26.6-27.3-26.6C164.78,54.18,153.16,65.24,151.76,80.78Z"
         transform="translate(-6.3 -16)"
         id="path179" />
      <path
         d="M299,49v70H291.9V103.18a33.66,33.66,0,0,1-30.1,17.36,36.54,36.54,0,0,1,0-73.08,33.66,33.66,0,0,1,30.1,17.36V49ZM291.9,84c0-16.66-12.88-29.82-29.54-29.82a29.82,29.82,0,0,0,0,59.64C279,113.82,291.9,100.66,291.9,84Z"
         transform="translate(-6.3 -16)"
         id="path181" />
      <path
         d="M419.44,74.62V119h-7V74.62c0-13.3-7.7-20.44-18.62-20.44-11.76,0-21,7.84-21,25.76V119h-7V74.62c0-13.3-7.14-20.44-17.92-20.44-11.48,0-21.7,7.84-21.7,25.76V119h-7V49h7V61c5.18-9.66,13.58-13.58,22.54-13.58,10.22,0,18.2,5,21.84,14.28A25.51,25.51,0,0,1,394,47.46C408.8,47.46,419.44,57.12,419.44,74.62Z"
         transform="translate(-6.3 -16)"
         id="path183" />
    </g>
    <g
       class="cls-1"
       id="g191">
      <path
         d="M526.11,75.46V119H519V75.46c0-12.88-7.42-21.28-20.58-21.28-13.72,0-24.5,9-24.5,27.86v37h-7V49h7V62.3c5.32-10.36,14.28-14.84,25.06-14.84C515.61,47.46,526.11,58.52,526.11,75.46Z"
         transform="translate(-6.3 -16)"
         id="path187" />
      <path
         d="M613.61,49v66.64c0,21-15.54,32.9-34.86,32.9-16.38,0-28-6.58-33-16.8l6.16-3.5c3.64,7.42,11.48,13.58,26.88,13.58,17.5,0,27.86-10.22,27.86-26.18V102.76c-5.74,10.78-16.52,17.78-30.1,17.78A36.06,36.06,0,0,1,540.25,84a36.06,36.06,0,0,1,36.26-36.54c13.58,0,24.36,7,30.1,17.78V49Zm-7,35a29.68,29.68,0,1,0-29.68,29.82A29.46,29.46,0,0,0,606.61,84Z"
         transform="translate(-6.3 -16)"
         id="path189" />
    </g>
    <g
       class="cls-1"
       id="g197">
      <path
         d="M6.3,222.44l6.44-3.78C16.1,230.42,26,238.4,42.14,238.4c16.38,0,24.64-8.4,24.64-19.6,0-11.76-10.36-16.24-25.34-21-16.38-5.32-31.08-9.94-31.08-27,0-16.1,13-26.32,29.68-26.32,16.1,0,26.74,9.24,31.5,20.58l-6.3,3.5C61.6,159.72,54,151.6,40,151.6c-13.58,0-22.12,8-22.12,18.9,0,11.76,9.94,15.4,23.94,20,17.36,5.74,32.48,11.2,32.48,28.14,0,16.24-12.74,26.88-32.2,26.88C23.8,245.54,10.78,236.3,6.3,222.44Z"
         transform="translate(-6.3 -16)"
         id="path193" />
      <path
         d="M161.7,209a36.06,36.06,0,0,1-36.26,36.54c-13.58,0-24.36-7-30.1-17.78V272h-7V174h7v16.24c5.74-10.78,16.52-17.78,30.1-17.78A36.06,36.06,0,0,1,161.7,209Zm-7,0A29.68,29.68,0,1,0,125,238.82,29.46,29.46,0,0,0,154.7,209Z"
         transform="translate(-6.3 -16)"
         id="path195" />
    </g>
    <g
       class="cls-1"
       id="g201">
      <path
         d="M238,173v6.72c-12,0-23.38,7.42-23.38,25.34V244h-7V174h7v13.72C219.38,176.66,228.48,173,238,173Z"
         transform="translate(-6.3 -16)"
         id="path199" />
    </g>
    <g
       class="cls-1"
       id="g205">
      <path
         d="M311.92,209.28c0,1.12-.14,2.24-.14,3.36H248.36c1.68,15.82,13.72,26.18,29.68,26.18,11.48,0,20.16-5.32,24.22-12.74l6.16,3.64c-5.74,9.52-16.66,15.82-30.52,15.82-21.56,0-36.82-15.4-36.82-36.54,0-20.58,14.84-36.54,36.26-36.54S311.92,190.1,311.92,209.28Zm-63.56-3.5h56.28c-1.54-17.08-13.58-26.6-27.3-26.6C261.38,179.18,249.76,190.24,248.36,205.78Z"
         transform="translate(-6.3 -16)"
         id="path203" />
    </g>
    <g
       class="cls-1"
       id="g209">
      <path
         d="M370.58,225.66c0,11.48-10.08,19.88-25.06,19.88-14,0-23.24-6.58-26.6-15.54l6-3.5c2.52,7.56,10.08,12.32,20.58,12.32,9.8,0,18.06-4.34,18.06-13.16,0-19-42.42-8.12-42.42-33.32,0-11.06,9.52-19.88,23.8-19.88,11.34,0,20,5.46,23.8,14l-5.88,3.36c-2.94-7.28-10.22-10.64-17.92-10.64-9.1,0-16.8,4.76-16.8,13.16C328.16,211.1,370.58,200,370.58,225.66Z"
         transform="translate(-6.3 -16)"
         id="path207" />
    </g>
  </g>
  <path
     class="cls-2"
     d="M444.28,30.17V267.44a9.07,9.07,0,0,1-9.07,9.07H193.05a9.07,9.07,0,0,1-9.07-9.07h0V150.64"
     transform="translate(-6.3 -16)"
     id="path213" />
  <circle
     class="cls-3"
     cx="177.68"
     cy="139.34"
     r="14.17"
     id="circle215" />
  <circle
     class="cls-3"
     cx="437.98"
     cy="14.17"
     r="14.17"
     id="circle217" />
  <g
     class="cls-1"
     id="g307"
     transform="translate(21.66543,11.22794)">
    <g
       class="cls-1"
       id="g271"
       transform="translate(55.257303,-5.5257303)">
      <g
         aria-label="&lt;WSL Setup&gt;"
         id="text322"
         style="font-style:normal;font-weight:normal;font-size:56.4283px;line-height:1.25;font-family:sans-serif;fill:#00687f;fill-opacity:0.960784;stroke:none;stroke-width:1.41071">
        <path
           id="path147"
           style="font-style:normal;font-variant:normal;font-weight:normal;font-stretch:normal;font-family:Hack;-inkscape-font-specification:Hack;stroke-width:1.41071"
           d="m 397.82736,314.83736 23.41995,-8.73426 -23.41995,-8.81692 v -5.01463 l 29.12339,11.51711 v 4.57378 l -29.12339,11.5171 z m -31.16229,-21.93209 h 4.60133 l 0.49595,3.94006 q 2.64508,-4.68399 8.29342,-4.68399 5.53813,0 8.70671,4.3258 3.19613,4.32581 3.19613,11.82019 0,7.54949 -3.22369,11.90284 -3.19613,4.35336 -8.67915,4.35336 -5.78611,0 -8.29342,-4.68399 v 15.62248 h -5.09728 z m 12.72943,27.36001 q 7.2464,0 7.2464,-11.90284 0,-11.90285 -7.2464,-11.90285 -3.71964,0 -5.6759,3.08592 -1.95625,3.08593 -1.95625,8.78937 0,5.731 1.95625,8.84448 1.98381,3.08592 5.6759,3.08592 z m -37.16885,4.29825 q -9.39554,0 -9.39554,-12.48146 v -19.12169 h 5.06973 v 19.12169 q 0,8.073 6.03408,8.073 3.52677,0 5.45547,-2.53487 1.92871,-2.56241 1.92871,-7.21885 v -17.44097 h 5.09728 v 30.80412 h -4.60133 l -0.49595,-4.62889 q -2.75529,5.42792 -9.09245,5.42792 z m -26.50588,-0.68882 q -5.67589,0 -8.04544,-2.28689 -2.34199,-2.31444 -2.34199,-7.88013 v -16.86236 h -8.23831 v -3.94006 h 8.23831 v -8.07299 l 5.06973,-2.20423 v 10.27722 h 11.5171 v 3.94006 h -11.5171 v 16.86236 q 0,3.38901 1.29498,4.76665 1.29499,1.35009 4.51868,1.35009 h 5.70344 v 4.05028 z m -37.52702,0.68882 q -7.1362,0 -11.21402,-4.2707 -4.05027,-4.29825 -4.05027,-11.70997 0,-4.60133 1.59806,-8.32097 1.62562,-3.71964 4.7942,-5.89632 3.19614,-2.20423 7.88013,-2.20423 6.17184,0 9.56085,3.96762 3.41655,3.94006 3.41655,10.93849 v 2.47976 h -21.95964 v 0.16532 q 0,4.82175 2.53486,7.68725 2.53487,2.8655 7.49439,2.8655 2.8655,0 5.53813,-0.90925 2.70018,-0.90924 5.20749,-2.20423 v 5.04218 q -2.61752,1.07456 -5.31771,1.70828 -2.67263,0.66127 -5.48302,0.66127 z m 6.91577,-18.98394 q 0,-2.56241 -0.77148,-4.62888 -0.77148,-2.06647 -2.47976,-3.27879 -1.68072,-1.21233 -4.46356,-1.21233 -2.8104,0 -4.71155,1.23988 -1.87359,1.21233 -2.94815,3.27879 -1.04701,2.06647 -1.32254,4.60133 z m -43.47844,18.98394 q -2.94816,0 -5.86877,-0.63372 -2.9206,-0.63371 -5.86876,-1.84604 v -5.92387 q 3.11348,1.98381 6.00653,2.94816 2.78284,0.9368 5.64834,0.9368 4.21559,0 6.58514,-1.8736 2.34199,-1.87359 2.34199,-5.42792 0,-2.94815 -1.59806,-4.54622 -0.8817,-0.90925 -2.23179,-1.48786 -1.32254,-0.57861 -3.389,-1.04701 l -2.97571,-0.68882 q -2.78284,-0.63371 -4.87686,-1.57051 -2.06647,-0.9368 -3.44411,-2.342 -2.58997,-2.58997 -2.58997,-7.02598 0,-5.59324 3.71964,-8.87203 1.76338,-1.57051 4.21559,-2.42465 2.47976,-0.85414 5.62078,-0.85414 2.3971,0 4.98707,0.5235 1.26744,0.27553 2.64508,0.68882 1.4052,0.38574 2.8655,0.9368 v 5.64834 q -1.32254,-0.85414 -2.58997,-1.43275 -1.23988,-0.60616 -2.47976,-1.01945 -2.56242,-0.82659 -5.12483,-0.82659 -3.94007,0 -6.25451,1.84604 -2.28689,1.84605 -2.28689,5.06973 0,1.4052 0.38574,2.36955 0.4133,0.9368 1.12967,1.62562 1.57051,1.48786 5.59324,2.42465 l 2.9206,0.66127 q 5.70345,1.29499 8.40363,4.24315 2.67263,2.83794 2.67263,7.82501 0,3.14103 -0.96435,5.37282 -0.96435,2.20423 -2.64508,3.63698 -3.60943,3.08592 -10.55275,3.08592 z m -78.11242,-41.93548 h 5.59324 v 36.45246 h 19.86562 v 4.68399 h -25.45886 z m -23.80569,41.93548 q -2.94816,0 -5.86876,-0.63372 -2.92061,-0.63371 -5.86876,-1.84604 v -5.92387 q 3.11347,1.98381 6.00652,2.94816 2.78284,0.9368 5.64834,0.9368 4.21559,0 6.58514,-1.8736 2.342,-1.87359 2.342,-5.42792 0,-2.94815 -1.59807,-4.54622 -0.88169,-0.90925 -2.23178,-1.48786 -1.32254,-0.57861 -3.38901,-1.04701 l -2.97571,-0.68882 q -2.78284,-0.63371 -4.87686,-1.57051 -2.06646,-0.9368 -3.44411,-2.342 -2.58997,-2.58997 -2.58997,-7.02598 0,-5.59324 3.71964,-8.87203 1.76338,-1.57051 4.21559,-2.42465 2.47976,-0.85414 5.62079,-0.85414 2.3971,0 4.98707,0.5235 1.26743,0.27553 2.64508,0.68882 1.40519,0.38574 2.86549,0.9368 v 5.64834 q -1.32253,-0.85414 -2.58997,-1.43275 -1.23988,-0.60616 -2.47976,-1.01945 -2.56241,-0.82659 -5.12483,-0.82659 -3.94006,0 -6.2545,1.84604 -2.28689,1.84605 -2.28689,5.06973 0,1.4052 0.38574,2.36955 0.41329,0.9368 1.12966,1.62562 1.57052,1.48786 5.59324,2.42465 l 2.9206,0.66127 q 5.70345,1.29499 8.40363,4.24315 2.67263,2.83794 2.67263,7.82501 0,3.14103 -0.96435,5.37282 -0.96435,2.20423 -2.64507,3.63698 -3.60943,3.08592 -10.55276,3.08592 z M 89.648388,282.62805 h 5.427917 l 3.940062,33.39409 4.683993,-22.09741 h 5.81365 l 4.7391,22.15251 3.94006,-33.44919 h 5.42792 l -6.14429,41.13645 h -5.2626 l -5.59324,-24.43941 -5.56568,24.43941 h -5.2626 z m -31.548049,25.73439 v -4.57378 l 29.123395,-11.51711 v 5.01463 l -23.419948,8.81692 23.419948,8.73426 v 5.04218 z" />
      </g>
    </g>
  </g>
  <path
     class="cls-5"
     d="m 526.08923,315.45809 23.1433,0.39 a 3.2967654,3 0 0 1 3.23082,3 v 23.95 a 3.2967654,3 0 0 1 -3.29676,3 l -500.306127,1.08 a 4.3956872,4 0 0 0 -4.395688,4 v 20.53 a 3.2967654,3 0 0 0 3.142918,2.94 l 23.231202,0.6"
     id="path309" />
  <circle
     class="cls-3"
     cx="519.09137"
     cy="315.61615"
     r="8.5"
     id="circle311" />
  <circle
     class="cls-3"
     cx="73.4757"
     cy="374.93808"
     r="8.5"
     id="circle313" />
  <g
     aria-label="&lt;/Instant freelancer environment&gt;"
     id="text326"
     style="font-style:normal;font-weight:normal;font-size:24.7718px;line-height:1.25;font-family:sans-serif;fill:#00687f;fill-opacity:0.960784;stroke:none;stroke-width:0.619295">
    <path
       id="path212"
       style="font-style:normal;font-variant:normal;font-weight:normal;font-stretch:normal;font-family:hack;-inkscape-font-specification:hack;stroke-width:0.619295"
       d="m 565.82445,375.57169 10.28126,-3.83431 -10.28126,-3.87059 v -2.2014 l 12.78505,5.05596 v 2.00787 l -12.78505,5.05596 z m -6.21714,3.96735 q -2.4917,0 -3.53192,-1.00393 -1.02813,-1.01603 -1.02813,-3.45934 v -7.40251 h -3.61658 v -1.72968 h 3.61658 v -3.54401 l 2.22559,-0.96765 v 4.51166 h 5.05597 v 1.72968 h -5.05597 v 7.40251 q 0,1.48776 0.5685,2.09254 0.56849,0.59268 1.98368,0.59268 h 2.50379 v 1.77805 z m -22.31639,-13.59546 h 2.00787 l 0.21772,2.03207 q 1.22165,-2.35865 3.97945,-2.35865 4.14879,0 4.14879,5.47931 v 8.39435 h -2.23768 v -8.39435 q 0,-1.82643 -0.64107,-2.68522 -0.62897,-0.85879 -1.95949,-0.85879 -1.58452,0 -2.44331,1.12489 -0.84669,1.1128 -0.84669,3.15695 v 7.65652 h -2.22559 z m -9.07171,13.89785 q -3.13276,0 -4.92291,-1.87481 -1.77805,-1.88692 -1.77805,-5.14064 0,-2.01996 0.70154,-3.65287 0.71365,-1.63291 2.10464,-2.58846 1.40309,-0.96765 3.45934,-0.96765 2.70942,0 4.19718,1.74177 1.49985,1.72967 1.49985,4.80195 v 1.08861 h -9.64019 v 0.0726 q 0,2.11673 1.11279,3.37468 1.1128,1.25794 3.29001,1.25794 1.25794,0 2.43121,-0.39916 1.18537,-0.39915 2.28607,-0.96764 v 2.21349 q -1.14908,0.47173 -2.33445,0.74993 -1.17327,0.29029 -2.40703,0.29029 z m 3.036,-8.33387 q 0,-1.12489 -0.33868,-2.03206 -0.33867,-0.90717 -1.0886,-1.43938 -0.73783,-0.5322 -1.95949,-0.5322 -1.23375,0 -2.06835,0.5443 -0.8225,0.53221 -1.29423,1.43938 -0.45963,0.90717 -0.58059,2.01996 z m -24.83227,-5.56398 h 1.82643 l 0.19353,1.16118 q 0.8225,-1.48776 2.43122,-1.48776 1.72967,0 2.40702,1.70548 0.82251,-1.70548 2.58846,-1.70548 1.64501,0 2.29817,1.23375 0.66526,1.27004 0.66526,4.78986 v 7.85005 h -2.03206 v -7.75328 q 0,-1.52405 -0.0847,-2.35864 -0.0726,-0.8346 -0.24192,-1.23376 -0.30239,-0.66525 -1.19746,-0.66525 -0.91927,0 -1.27004,0.72573 -0.20562,0.42335 -0.29029,1.23375 -0.0847,0.81041 -0.0847,2.29817 v 7.75328 h -2.03207 v -7.75328 q 0,-1.46357 -0.0847,-2.32236 -0.0847,-0.85879 -0.26611,-1.25794 -0.32658,-0.67735 -1.22165,-0.67735 -0.89508,0 -1.22166,0.71364 -0.19353,0.41125 -0.2782,1.25794 -0.0847,0.8346 -0.0847,2.28607 v 7.75328 h -2.01996 z m -13.87366,0 h 2.00787 l 0.21772,2.03207 q 1.22166,-2.35865 3.97945,-2.35865 4.1488,0 4.1488,5.47931 v 8.39435 h -2.23769 v -8.39435 q 0,-1.82643 -0.64107,-2.68522 -0.62897,-0.85879 -1.95949,-0.85879 -1.58452,0 -2.44331,1.12489 -0.84669,1.1128 -0.84669,3.15695 v 7.65652 h -2.22559 z m -9.79744,13.89785 q -2.83037,0 -4.33023,-1.82643 -1.48776,-1.83853 -1.48776,-5.27369 0,-3.44724 1.49986,-5.28578 1.49985,-1.83853 4.30603,-1.83853 2.80618,0 4.29394,1.83853 1.49986,1.82644 1.49986,5.29788 0,3.44725 -1.48776,5.27368 -1.48776,1.81434 -4.29394,1.81434 z m -0.0121,-1.88691 q 1.6571,0 2.54008,-1.35471 0.89508,-1.35471 0.89508,-3.88269 0,-2.51588 -0.89508,-3.8585 -0.88298,-1.3547 -2.54008,-1.3547 -1.66919,0 -2.56426,1.3547 -0.88298,1.34262 -0.88298,3.8585 0,2.52798 0.89507,3.88269 0.89508,1.35471 2.55217,1.35471 z m -18.72399,-12.01094 h 2.01997 l 0.21772,2.64894 q 0.56849,-1.43938 1.70548,-2.2014 1.14908,-0.77412 2.7457,-0.77412 1.66919,0 2.90294,0.8467 v 2.27397 q -1.30632,-1.06441 -3.09647,-1.06441 -2.05625,0 -3.15695,1.31842 -1.1007,1.30632 -1.1007,3.76173 v 6.73725 h -2.23769 z m -12.24075,-2.4554 q -0.36287,0 -0.36287,-0.36287 v -2.09254 q 0,-0.36287 0.36287,-0.36287 h 1.74177 q 0.36286,0 0.36286,0.36287 v 2.09254 q 0,0.36287 -0.36286,0.36287 z m 4.06412,16.09925 q -1.99577,0 -3.09647,-1.28214 -1.08861,-1.29423 -1.08861,-3.62868 v -6.99126 h -2.96342 v -1.74177 h 5.18901 v 8.73303 q 0,1.47566 0.5564,2.24978 0.5564,0.77412 1.62081,0.77412 h 2.60056 v 1.88692 z m -24.09447,-13.64385 h 2.31026 l 3.93107,11.36987 3.94317,-11.36987 h 2.31026 l -4.81405,13.54708 h -2.86666 z m -13.7648,0 h 2.00787 l 0.21772,2.03207 q 1.22166,-2.35865 3.97946,-2.35865 4.14879,0 4.14879,5.47931 v 8.39435 H 426.096 v -8.39435 q 0,-1.82643 -0.64106,-2.68522 -0.62898,-0.85879 -1.95949,-0.85879 -1.58453,0 -2.44332,1.12489 -0.84669,1.1128 -0.84669,3.15695 v 7.65652 h -2.22559 z m -9.0717,13.89785 q -3.13276,0 -4.92291,-1.87481 -1.77806,-1.88692 -1.77806,-5.14064 0,-2.01996 0.70155,-3.65287 0.71364,-1.63291 2.10463,-2.58846 1.40309,-0.96765 3.45935,-0.96765 2.70941,0 4.19717,1.74177 1.49986,1.72967 1.49986,4.80195 v 1.08861 h -9.6402 v 0.0726 q 0,2.11673 1.1128,3.37468 1.11279,1.25794 3.29,1.25794 1.25794,0 2.43122,-0.39916 1.18537,-0.39915 2.28607,-0.96764 v 2.21349 q -1.14909,0.47173 -2.33446,0.74993 -1.17327,0.29029 -2.40702,0.29029 z m 3.036,-8.33387 q 0,-1.12489 -0.33868,-2.03206 -0.33868,-0.90717 -1.08861,-1.43938 -0.73783,-0.5322 -1.95948,-0.5322 -1.23376,0 -2.06835,0.5443 -0.8225,0.53221 -1.29423,1.43938 -0.45963,0.90717 -0.58059,2.01996 z m -37.41171,-5.56398 h 2.01997 l 0.21772,2.64894 q 0.56849,-1.43938 1.70548,-2.2014 1.14908,-0.77412 2.7457,-0.77412 1.6692,0 2.90295,0.8467 v 2.27397 q -1.30633,-1.06441 -3.09648,-1.06441 -2.05625,0 -3.15695,1.31842 -1.1007,1.30632 -1.1007,3.76173 v 6.73725 h -2.23769 z m -10.36593,13.89785 q -3.13276,0 -4.92291,-1.87481 -1.77805,-1.88692 -1.77805,-5.14064 0,-2.01996 0.70154,-3.65287 0.71364,-1.63291 2.10464,-2.58846 1.40309,-0.96765 3.45934,-0.96765 2.70941,0 4.19717,1.74177 1.49986,1.72967 1.49986,4.80195 v 1.08861 h -9.6402 v 0.0726 q 0,2.11673 1.1128,3.37468 1.11279,1.25794 3.29,1.25794 1.25794,0 2.43122,-0.39916 1.18537,-0.39915 2.28607,-0.96764 v 2.21349 q -1.14908,0.47173 -2.33445,0.74993 -1.17328,0.29029 -2.40703,0.29029 z m 3.036,-8.33387 q 0,-1.12489 -0.33868,-2.03206 -0.33868,-0.90717 -1.0886,-1.43938 -0.73784,-0.5322 -1.95949,-0.5322 -1.23375,0 -2.06835,0.5443 -0.8225,0.53221 -1.29423,1.43938 -0.45963,0.90717 -0.58059,2.01996 z m -17.6233,8.33387 q -2.14092,0 -3.60449,-0.89507 -1.45147,-0.90717 -2.2014,-2.51589 -0.73783,-1.60871 -0.73783,-3.70125 0,-2.10464 0.74993,-3.70126 0.74993,-1.60871 2.21349,-2.50379 1.46357,-0.90717 3.62869,-0.90717 1.12489,0 2.03206,0.26611 0.90717,0.254 1.85062,0.77411 v 2.33446 q -0.85878,-0.76203 -1.72967,-1.12489 -0.85879,-0.36287 -1.95949,-0.36287 -1.6329,0 -2.61265,0.70154 -0.96764,0.70155 -1.40309,1.88692 -0.42334,1.18537 -0.42334,2.63684 0,1.43938 0.43544,2.63684 0.43544,1.18537 1.40309,1.88691 0.96765,0.70155 2.58846,0.70155 1.06441,0 1.98368,-0.35077 0.91926,-0.35078 1.71757,-1.1128 v 2.31026 q -1.72967,1.04022 -3.93107,1.04022 z m -21.08264,-13.89785 h 2.00788 l 0.21772,2.03207 q 1.22165,-2.35865 3.97945,-2.35865 4.14879,0 4.14879,5.47931 v 8.39435 h -2.23768 v -8.39435 q 0,-1.82643 -0.64107,-2.68522 -0.62897,-0.85879 -1.95949,-0.85879 -1.58452,0 -2.44331,1.12489 -0.84669,1.1128 -0.84669,3.15695 v 7.65652 h -2.2256 z m -11.11585,13.89785 q -1.95949,0 -3.24163,-1.12489 -1.27004,-1.13698 -1.27004,-3.25371 0,-1.75387 0.8467,-2.73361 0.84669,-0.99184 2.21349,-1.391 1.36681,-0.39915 2.91504,-0.39915 h 2.98762 v -0.35077 q 0,-1.72968 -0.88298,-2.40703 -0.87088,-0.67735 -2.45541,-0.67735 -1.23375,0 -2.41912,0.33867 -1.18537,0.33868 -2.2135,0.94346 v -2.22559 q 1.1128,-0.41125 2.24979,-0.67735 1.13698,-0.26611 2.32235,-0.26611 1.20956,0 2.34655,0.33868 1.14908,0.32658 1.98368,1.0886 0.8346,0.74993 1.1128,2.01997 0.19352,0.89507 0.19352,2.69732 v 2.76989 q 0,1.13699 0.12096,2.51589 0.13305,1.3789 0.59269,2.44331 h -2.23769 q -0.20563,-0.47173 -0.32658,-1.00393 -0.12096,-0.54431 -0.19353,-1.05232 -0.71364,1.22165 -1.98368,1.81434 -1.25794,0.59268 -2.66103,0.59268 z m 0.5443,-1.86272 q 1.3789,0 2.23768,-0.67735 0.87089,-0.67736 1.27004,-1.76596 0.39916,-1.1007 0.39916,-2.35864 v -0.49592 h -2.81828 q -0.94346,0 -1.85063,0.21772 -0.89507,0.20562 -1.48775,0.79831 -0.58059,0.59268 -0.58059,1.72967 0,1.28213 0.78621,1.9232 0.78621,0.62897 2.04416,0.62897 z m -11.68436,1.60872 q -1.99577,0 -3.09647,-1.28214 -1.0886,-1.29423 -1.0886,-3.62868 v -12.26494 h -3.56821 v -1.74177 h 5.7938 v 14.00671 q 0,1.47566 0.55639,2.24978 0.5564,0.77412 1.62082,0.77412 h 2.60055 v 1.88692 z m -16.64355,0.254 q -3.13276,0 -4.92291,-1.87481 -1.77805,-1.88692 -1.77805,-5.14064 0,-2.01996 0.70154,-3.65287 0.71364,-1.63291 2.10464,-2.58846 1.40309,-0.96765 3.45934,-0.96765 2.70942,0 4.19718,1.74177 1.49985,1.72967 1.49985,4.80195 v 1.08861 h -9.6402 v 0.0726 q 0,2.11673 1.1128,3.37468 1.1128,1.25794 3.29001,1.25794 1.25794,0 2.43121,-0.39916 1.18537,-0.39915 2.28607,-0.96764 v 2.21349 q -1.14908,0.47173 -2.33445,0.74993 -1.17327,0.29029 -2.40703,0.29029 z m 3.036,-8.33387 q 0,-1.12489 -0.33868,-2.03206 -0.33867,-0.90717 -1.0886,-1.43938 -0.73783,-0.5322 -1.95949,-0.5322 -1.23375,0 -2.06835,0.5443 -0.8225,0.53221 -1.29423,1.43938 -0.45963,0.90717 -0.58059,2.01996 z m -17.94988,8.33387 q -3.13276,0 -4.92291,-1.87481 -1.77805,-1.88692 -1.77805,-5.14064 0,-2.01996 0.70154,-3.65287 0.71365,-1.63291 2.10464,-2.58846 1.40309,-0.96765 3.45934,-0.96765 2.70942,0 4.19718,1.74177 1.49985,1.72967 1.49985,4.80195 v 1.08861 h -9.64019 v 0.0726 q 0,2.11673 1.11279,3.37468 1.1128,1.25794 3.29001,1.25794 1.25794,0 2.43121,-0.39916 1.18537,-0.39915 2.28607,-0.96764 v 2.21349 q -1.14908,0.47173 -2.33445,0.74993 -1.17327,0.29029 -2.40703,0.29029 z m 3.036,-8.33387 q 0,-1.12489 -0.33868,-2.03206 -0.33867,-0.90717 -1.0886,-1.43938 -0.73783,-0.5322 -1.95949,-0.5322 -1.23375,0 -2.06835,0.5443 -0.8225,0.53221 -1.29423,1.43938 -0.45963,0.90717 -0.58059,2.01996 z m -22.49784,-5.56398 h 2.01997 l 0.21772,2.64894 q 0.56849,-1.43938 1.70548,-2.2014 1.14908,-0.77412 2.7457,-0.77412 1.6692,0 2.90295,0.8467 v 2.27397 q -1.30633,-1.06441 -3.09648,-1.06441 -2.05625,0 -3.15695,1.31842 -1.1007,1.30632 -1.1007,3.76173 v 6.73725 h -2.23769 z m -12.9302,1.72968 h -3.61658 v -1.72968 h 3.61658 v -0.94345 q 0,-2.22559 1.01603,-3.27791 1.02813,-1.05232 3.19324,-1.05232 h 2.67313 v 1.85063 h -2.52798 q -1.18537,0 -1.6571,0.49592 -0.47173,0.48382 -0.47173,1.72967 v 1.19746 h 4.65681 v 1.72968 h -4.65681 v 11.8174 h -2.22559 z m -25.70316,11.86578 q -2.49169,0 -3.53191,-1.00393 -1.02813,-1.01603 -1.02813,-3.45934 v -7.40251 h -3.61658 v -1.72968 h 3.61658 v -3.54401 l 2.22559,-0.96765 v 4.51166 h 5.05597 v 1.72968 h -5.05597 v 7.40251 q 0,1.48776 0.5685,2.09254 0.56849,0.59268 1.98368,0.59268 h 2.50379 v 1.77805 z m -22.31639,-13.59546 h 2.00788 l 0.21772,2.03207 q 1.22165,-2.35865 3.97945,-2.35865 4.14879,0 4.14879,5.47931 v 8.39435 h -2.23768 v -8.39435 q 0,-1.82643 -0.64107,-2.68522 -0.62897,-0.85879 -1.95949,-0.85879 -1.58452,0 -2.44331,1.12489 -0.84669,1.1128 -0.84669,3.15695 v 7.65652 h -2.2256 z m -11.11585,13.89785 q -1.95949,0 -3.24163,-1.12489 -1.27004,-1.13698 -1.27004,-3.25371 0,-1.75387 0.8467,-2.73361 0.84669,-0.99184 2.21349,-1.391 1.36681,-0.39915 2.91504,-0.39915 h 2.98762 v -0.35077 q 0,-1.72968 -0.88298,-2.40703 -0.87088,-0.67735 -2.45541,-0.67735 -1.23375,0 -2.41912,0.33867 -1.18537,0.33868 -2.2135,0.94346 v -2.22559 q 1.1128,-0.41125 2.24979,-0.67735 1.13698,-0.26611 2.32235,-0.26611 1.20956,0 2.34655,0.33868 1.14908,0.32658 1.98368,1.0886 0.8346,0.74993 1.1128,2.01997 0.19353,0.89507 0.19353,2.69732 v 2.76989 q 0,1.13699 0.12095,2.51589 0.13305,1.3789 0.59269,2.44331 h -2.23769 q -0.20563,-0.47173 -0.32658,-1.00393 -0.12096,-0.54431 -0.19353,-1.05232 -0.71364,1.22165 -1.98368,1.81434 -1.25794,0.59268 -2.66103,0.59268 z m 0.5443,-1.86272 q 1.3789,0 2.23768,-0.67735 0.87089,-0.67736 1.27004,-1.76596 0.39916,-1.1007 0.39916,-2.35864 v -0.49592 h -2.81828 q -0.94345,0 -1.85063,0.21772 -0.89507,0.20562 -1.48775,0.79831 -0.58059,0.59268 -0.58059,1.72967 0,1.28213 0.78621,1.9232 0.78621,0.62897 2.04416,0.62897 z m -11.8537,1.56033 q -2.4917,0 -3.53192,-1.00393 -1.02812,-1.01603 -1.02812,-3.45934 v -7.40251 h -3.61659 v -1.72968 h 3.61659 v -3.54401 l 2.22559,-0.96765 v 4.51166 h 5.05596 v 1.72968 h -5.05596 v 7.40251 q 0,1.48776 0.56849,2.09254 0.56849,0.59268 1.98368,0.59268 h 2.50379 v 1.77805 z m -17.55072,0.30239 q -1.9353,0 -4.54795,-0.84669 v -2.29816 q 2.54008,1.28213 4.52376,1.28213 1.41518,0 2.26187,-0.59268 0.8467,-0.59269 0.8467,-1.58453 0,-0.85879 -0.71364,-1.3789 -0.70155,-0.5322 -2.24979,-0.85878 l -0.93136,-0.19353 q -1.9111,-0.38706 -2.80618,-1.27004 -0.88298,-0.89508 -0.88298,-2.43122 0,-1.94739 1.33052,-2.99971 1.33052,-1.05232 3.78592,-1.05232 2.08045,0 4.02784,0.79831 v 2.17721 q -1.89901,-1.11279 -3.96736,-1.11279 -2.92713,0 -2.92713,1.99577 0,0.65316 0.254,1.04022 0.25401,0.37497 0.96765,0.64107 0.71364,0.25401 2.10464,0.53221 l 0.89507,0.16933 q 3.36258,0.66526 3.36258,3.66497 0,2.00787 -1.42728,3.16905 -1.42728,1.14908 -3.90688,1.14908 z m -19.67955,-13.89785 h 2.00787 l 0.21772,2.03207 q 1.22166,-2.35865 3.97946,-2.35865 4.14879,0 4.14879,5.47931 v 8.39435 h -2.23769 v -8.39435 q 0,-1.82643 -0.64107,-2.68522 -0.62897,-0.85879 -1.95948,-0.85879 -1.58453,0 -2.44332,1.12489 -0.84669,1.1128 -0.84669,3.15695 v 7.65652 h -2.22559 z m -14.84131,11.49083 h 3.78592 v -13.94623 h -3.78592 v -2.05626 h 10.02726 v 2.05626 h -3.78593 v 13.94623 h 3.78593 v 2.05625 h -10.02726 z m -6.5921,-16.00249 h 2.29816 l -9.50715,20.35691 h -2.31026 z m -24.602466,11.2973 v -2.00787 l 12.785056,-5.05596 v 2.2014 l -10.281266,3.87059 10.281266,3.83431 v 2.21349 z" />
  </g>
</svg>
